<mxfile host="app.diagrams.net" agent="Mozilla/5.0 (Windows NT 10.0; Win64; x64) AppleWebKit/537.36 (KHTML, like Gecko) Chrome/126.0.0.0 Safari/537.36 Edg/126.0.0.0" version="26.2.13">
  <diagram id="prtHgNgQTEPvFCAcTncT" name="Page-1">
    <mxGraphModel dx="970" dy="500" grid="1" gridSize="10" guides="1" tooltips="1" connect="1" arrows="1" fold="1" page="1" pageScale="1" pageWidth="827" pageHeight="1169" math="0" shadow="0">
      <root>
        <mxCell id="0" />
        <mxCell id="1" parent="0" />
        <mxCell id="1hLLw_9Tvo3HKh9lFe4J-19" value="" style="edgeStyle=orthogonalEdgeStyle;rounded=0;orthogonalLoop=1;jettySize=auto;html=1;" edge="1" parent="1" source="1hLLw_9Tvo3HKh9lFe4J-7" target="1hLLw_9Tvo3HKh9lFe4J-17">
          <mxGeometry relative="1" as="geometry" />
        </mxCell>
        <mxCell id="1hLLw_9Tvo3HKh9lFe4J-7" value="AccountService" style="rounded=0;whiteSpace=wrap;html=1;" vertex="1" parent="1">
          <mxGeometry x="10" y="110" width="120" height="60" as="geometry" />
        </mxCell>
        <mxCell id="1hLLw_9Tvo3HKh9lFe4J-20" value="" style="edgeStyle=orthogonalEdgeStyle;rounded=0;orthogonalLoop=1;jettySize=auto;html=1;" edge="1" parent="1" source="1hLLw_9Tvo3HKh9lFe4J-8" target="1hLLw_9Tvo3HKh9lFe4J-16">
          <mxGeometry relative="1" as="geometry" />
        </mxCell>
        <mxCell id="1hLLw_9Tvo3HKh9lFe4J-8" value="AdvertisementService" style="rounded=0;whiteSpace=wrap;html=1;" vertex="1" parent="1">
          <mxGeometry x="155" y="110" width="120" height="60" as="geometry" />
        </mxCell>
        <mxCell id="1hLLw_9Tvo3HKh9lFe4J-21" value="" style="edgeStyle=orthogonalEdgeStyle;rounded=0;orthogonalLoop=1;jettySize=auto;html=1;" edge="1" parent="1" source="1hLLw_9Tvo3HKh9lFe4J-9" target="1hLLw_9Tvo3HKh9lFe4J-15">
          <mxGeometry relative="1" as="geometry" />
        </mxCell>
        <mxCell id="1hLLw_9Tvo3HKh9lFe4J-9" value="CartService" style="rounded=0;whiteSpace=wrap;html=1;" vertex="1" parent="1">
          <mxGeometry x="294" y="110" width="120" height="60" as="geometry" />
        </mxCell>
        <mxCell id="1hLLw_9Tvo3HKh9lFe4J-24" value="" style="edgeStyle=orthogonalEdgeStyle;rounded=0;orthogonalLoop=1;jettySize=auto;html=1;" edge="1" parent="1" source="1hLLw_9Tvo3HKh9lFe4J-10" target="1hLLw_9Tvo3HKh9lFe4J-18">
          <mxGeometry relative="1" as="geometry" />
        </mxCell>
        <mxCell id="1hLLw_9Tvo3HKh9lFe4J-10" value="StockpileService" style="rounded=0;whiteSpace=wrap;html=1;" vertex="1" parent="1">
          <mxGeometry x="700" y="110" width="120" height="60" as="geometry" />
        </mxCell>
        <mxCell id="1hLLw_9Tvo3HKh9lFe4J-11" value="ProductServiceImpl" style="rounded=0;whiteSpace=wrap;html=1;" vertex="1" parent="1">
          <mxGeometry x="570" y="210" width="120" height="60" as="geometry" />
        </mxCell>
        <mxCell id="1hLLw_9Tvo3HKh9lFe4J-23" value="" style="edgeStyle=orthogonalEdgeStyle;rounded=0;orthogonalLoop=1;jettySize=auto;html=1;" edge="1" parent="1" source="1hLLw_9Tvo3HKh9lFe4J-12" target="1hLLw_9Tvo3HKh9lFe4J-11">
          <mxGeometry relative="1" as="geometry" />
        </mxCell>
        <mxCell id="1hLLw_9Tvo3HKh9lFe4J-12" value="ProductService" style="rounded=0;whiteSpace=wrap;html=1;" vertex="1" parent="1">
          <mxGeometry x="570" y="110" width="120" height="60" as="geometry" />
        </mxCell>
        <mxCell id="1hLLw_9Tvo3HKh9lFe4J-13" value="OrderServiceImpl" style="rounded=0;whiteSpace=wrap;html=1;" vertex="1" parent="1">
          <mxGeometry x="430" y="210" width="120" height="60" as="geometry" />
        </mxCell>
        <mxCell id="1hLLw_9Tvo3HKh9lFe4J-22" value="" style="edgeStyle=orthogonalEdgeStyle;rounded=0;orthogonalLoop=1;jettySize=auto;html=1;" edge="1" parent="1" source="1hLLw_9Tvo3HKh9lFe4J-14" target="1hLLw_9Tvo3HKh9lFe4J-13">
          <mxGeometry relative="1" as="geometry" />
        </mxCell>
        <mxCell id="1hLLw_9Tvo3HKh9lFe4J-14" value="OrderService" style="rounded=0;whiteSpace=wrap;html=1;" vertex="1" parent="1">
          <mxGeometry x="430" y="110" width="120" height="60" as="geometry" />
        </mxCell>
        <mxCell id="1hLLw_9Tvo3HKh9lFe4J-15" value="CartServiceImpl" style="rounded=0;whiteSpace=wrap;html=1;" vertex="1" parent="1">
          <mxGeometry x="294" y="210" width="120" height="60" as="geometry" />
        </mxCell>
        <mxCell id="1hLLw_9Tvo3HKh9lFe4J-16" value="AdvertisementServiceImpl" style="rounded=0;whiteSpace=wrap;html=1;" vertex="1" parent="1">
          <mxGeometry x="140" y="210" width="150" height="60" as="geometry" />
        </mxCell>
        <mxCell id="1hLLw_9Tvo3HKh9lFe4J-17" value="AccountServiceImpl" style="rounded=0;whiteSpace=wrap;html=1;" vertex="1" parent="1">
          <mxGeometry x="10" y="210" width="120" height="60" as="geometry" />
        </mxCell>
        <mxCell id="1hLLw_9Tvo3HKh9lFe4J-18" value="StockpileService" style="rounded=0;whiteSpace=wrap;html=1;" vertex="1" parent="1">
          <mxGeometry x="700" y="210" width="120" height="60" as="geometry" />
        </mxCell>
      </root>
    </mxGraphModel>
  </diagram>
</mxfile>
